<?xml version="1.0" standalone="no"?>
<!DOCTYPE svg PUBLIC "-//W3C//DTD SVG 20010904//EN"
 "http://www.w3.org/TR/2001/REC-SVG-20010904/DTD/svg10.dtd">
<svg version="1.0" xmlns="http://www.w3.org/2000/svg"
 width="538.000000pt" height="801.000000pt" viewBox="0 0 538.000000 801.000000"
 preserveAspectRatio="xMidYMid meet">

<g transform="translate(0.000000,801.000000) scale(0.100000,-0.100000)"
fill="#000000" stroke="none">
<path d="M1125 7591 c-132 -13 -282 -122 -354 -259 -45 -86 -50 -152 -57 -713
l-6 -456 -167 -6 c-192 -7 -246 -20 -321 -76 -101 -76 -102 -80 -111 -329 -4
-119 -8 -1417 -8 -2884 l-1 -2668 950 0 950 0 0 862 0 862 50 48 50 48 573 0
573 0 47 -48 47 -48 0 -862 0 -862 950 0 950 0 0 2881 0 2882 -21 33 c-34 55
-104 110 -165 129 -37 12 -120 22 -238 29 l-181 11 -6 510 c-4 327 -11 527
-18 558 -31 129 -141 261 -274 327 l-79 40 -1532 -1 c-842 -1 -1562 -5 -1601
-8z m1157 -468 c64 -28 133 -95 170 -164 20 -38 23 -58 23 -144 0 -92 -2 -104
-29 -153 -117 -210 -414 -249 -581 -76 -65 66 -88 136 -83 249 5 106 18 137
92 210 112 112 266 142 408 78z m-1072 -103 l0 -121 123 3 122 3 3 118 3 117
84 0 85 0 0 -330 0 -330 -85 0 -85 0 0 124 c0 76 -4 127 -10 131 -6 4 -60 3
-120 0 l-110 -8 0 -47 c0 -26 -3 -81 -6 -123 l-7 -77 -83 0 -84 0 0 330 0 330
85 0 85 0 0 -120z m1920 40 l0 -80 -95 0 -95 0 0 -250 0 -250 -49 0 c-26 0
-69 3 -95 6 l-46 7 0 206 c0 113 -3 223 -6 244 l-7 37 -93 0 -94 0 0 80 0 80
290 0 290 0 0 -80z m660 6 l0 -73 -67 -6 c-38 -4 -108 -7 -156 -7 -99 0 -127
-10 -127 -45 0 -31 8 -32 170 -41 81 -4 138 -11 142 -18 4 -6 8 -39 8 -73 l0
-63 -160 0 -160 0 0 -50 0 -50 175 0 175 0 0 -80 0 -80 -265 0 -265 0 0 330 0
330 265 0 265 0 0 -74z m328 -167 l2 -236 136 -6 c178 -8 184 -12 184 -109 l0
-71 -251 6 c-138 3 -252 7 -254 9 -1 2 -5 148 -9 326 l-6 323 97 -3 98 -3 3
-236z m-2730 -1429 c186 -10 214 -20 247 -85 19 -38 20 -63 23 -459 l3 -419
-58 -59 -58 -59 -410 3 c-308 3 -417 7 -440 16 -45 20 -84 61 -95 101 -15 54
-23 515 -12 697 11 178 21 213 75 240 59 31 401 42 725 24z m1726 -15 c91 -46
98 -88 94 -567 -3 -402 -5 -413 -68 -458 -30 -21 -48 -24 -204 -31 -94 -4
-289 -8 -432 -8 l-262 -1 -56 64 -56 64 1 349 c0 402 6 487 38 532 52 72 108
80 571 78 313 -2 338 -3 374 -22z m1551 -3 c28 -12 56 -31 62 -42 26 -40 33
-157 33 -532 l0 -386 -46 -41 c-26 -22 -62 -44 -83 -48 -20 -5 -198 -8 -396
-8 -397 0 -444 5 -494 55 -52 52 -56 90 -56 485 0 378 4 415 46 469 53 68 108
75 534 72 339 -2 352 -2 400 -24z m-3142 -1611 c55 -9 92 -39 118 -96 17 -37
19 -72 19 -425 0 -225 -4 -400 -10 -421 -6 -20 -26 -52 -46 -72 -47 -47 -52
-47 -527 -50 l-388 -2 -54 57 -55 56 0 427 0 426 51 55 52 54 396 -1 c218 0
417 -4 444 -8z m1634 -43 l53 -52 0 -431 0 -431 -58 -57 -58 -57 -422 0 -422
0 -53 48 -53 47 -7 360 c-3 198 -2 394 2 437 8 75 31 129 67 159 27 22 99 26
509 28 l389 1 53 -52z m1531 29 c64 -35 66 -50 70 -462 4 -442 1 -484 -39
-530 -47 -53 -87 -58 -474 -59 -187 0 -366 4 -397 8 -65 8 -117 39 -137 80
-22 47 -33 255 -29 556 5 312 8 329 66 384 17 15 45 32 64 36 18 5 215 8 438
7 370 -2 408 -4 438 -20z m-3083 -1648 l56 -52 -3 -421 -3 -421 -25 -45 c-14
-25 -38 -51 -54 -59 -47 -22 -246 -33 -556 -29 -243 3 -301 6 -330 20 -42 19
-75 52 -90 92 -16 42 -24 488 -12 691 9 173 19 213 57 245 22 18 192 26 592
28 l311 2 57 -51z m3107 4 l48 -47 -1 -401 c0 -220 -4 -422 -8 -448 -10 -58
-48 -102 -106 -120 -29 -9 -148 -12 -425 -12 -376 0 -386 1 -433 22 -89 41
-102 109 -105 563 -4 400 22 468 181 481 40 3 236 6 437 7 l364 2 48 -47z"/>
<path d="M2065 6976 c-74 -32 -110 -124 -86 -216 16 -57 52 -95 104 -109 108
-27 207 47 207 156 0 128 -117 216 -225 169z"/>
<path d="M2507 1723 c-4 -3 -7 -348 -7 -765 l0 -758 170 0 170 0 0 765 0 765
-163 0 c-90 0 -167 -3 -170 -7z"/>
</g>
</svg>
