<?xml version="1.0" standalone="no"?>
<!DOCTYPE svg PUBLIC "-//W3C//DTD SVG 20010904//EN"
 "http://www.w3.org/TR/2001/REC-SVG-20010904/DTD/svg10.dtd">
<svg version="1.0" xmlns="http://www.w3.org/2000/svg"
 width="1280.000000pt" height="979.000000pt" viewBox="0 0 1280.000000 979.000000"
 preserveAspectRatio="xMidYMid meet">
<metadata>
Created by potrace 1.15, written by Peter Selinger 2001-2017
</metadata>
<g transform="translate(0.000000,979.000000) scale(0.100000,-0.100000)"
fill="#000000" stroke="none">
<path d="M6466 9683 c-3 -54 -11 -208 -16 -343 l-10 -245 -41 -86 -41 -86 41
-65 41 -65 0 -181 0 -182 -132 -135 -132 -136 112 -112 112 -112 -71 -80 c-40
-44 -78 -87 -86 -96 -13 -15 -7 -26 46 -102 34 -46 61 -89 61 -94 0 -28 -190
-395 -267 -518 l-88 -140 -192 -145 c-105 -80 -298 -226 -429 -324 l-237 -179
-206 -63 c-113 -34 -245 -74 -294 -89 l-87 -26 55 -45 c30 -25 55 -48 55 -52
0 -4 -67 -34 -148 -66 -409 -165 -711 -354 -1157 -726 -197 -165 -354 -322
-561 -564 -152 -176 -203 -246 -338 -455 -273 -422 -400 -690 -547 -1159 -171
-543 -184 -607 -229 -1099 -25 -274 -25 -403 0 -673 48 -508 77 -645 213
-1010 l84 -225 4344 4 c2389 2 4345 4 4346 5 1 1 18 62 38 136 20 74 60 212
90 305 89 279 186 713 205 915 27 285 37 507 29 640 -5 74 -13 223 -18 330
-15 293 -77 552 -229 965 -149 401 -370 798 -642 1150 -225 291 -277 351 -487
553 -335 324 -620 540 -938 712 -104 56 -226 123 -270 148 -73 41 -153 80
-214 103 -24 10 -24 10 24 59 35 35 44 51 34 55 -8 2 -104 36 -214 74 -110 38
-230 80 -266 94 -49 18 -175 101 -512 338 l-446 313 -157 331 c-86 181 -157
335 -157 340 0 6 24 51 52 102 28 50 51 95 51 100 0 4 -31 42 -69 83 l-69 75
126 128 127 128 -127 120 -128 121 0 188 0 189 40 64 41 65 -41 64 -40 65 -7
357 c-3 196 -10 356 -14 356 -4 0 -10 -44 -13 -97z"/>
<path d="M707 9658 c-4 -18 -9 -67 -13 -108 -5 -55 -12 -81 -27 -97 l-20 -23
22 -24 c30 -31 25 -68 -9 -72 -48 -5 -96 -33 -163 -94 -37 -34 -79 -82 -93
-105 -29 -50 -98 -223 -123 -310 l-18 -60 -81 -30 c-45 -17 -87 -36 -93 -42
-22 -22 1 -44 86 -85 l85 -40 0 -279 0 -278 -62 -13 -63 -14 -3 -100 -3 -100
33 -11 c18 -6 47 -14 63 -17 l30 -6 -6 -428 c-19 -1220 -31 -1927 -35 -1931
-2 -2 -35 -6 -74 -9 l-70 -5 0 -98 0 -98 38 -10 c21 -6 52 -14 70 -17 l32 -6
0 -194 c0 -178 -10 -819 -26 -1691 l-6 -342 -87 -3 -86 -3 -3 -106 -3 -106 53
-7 c29 -4 69 -11 88 -16 l35 -9 -7 -443 c-3 -244 -11 -769 -17 -1168 -6 -399
-12 -795 -13 -880 l-3 -155 655 -6 c360 -3 656 -5 657 -4 2 1 -2 159 -7 351
-5 192 -14 547 -20 789 -6 242 -15 611 -20 820 -5 209 -11 450 -12 535 l-3
155 93 19 93 19 -3 106 -3 106 -92 3 -91 3 -6 72 c-3 40 -10 302 -16 582 -6
281 -15 665 -20 855 -5 190 -10 421 -12 514 l-3 169 63 20 62 20 0 98 0 99
-64 0 -64 0 -6 93 c-3 50 -10 313 -16 582 -6 270 -15 661 -20 870 -5 209 -11
490 -12 625 l-3 244 33 10 33 9 -3 101 -3 101 -65 15 -65 16 -3 281 -2 281 77
30 c43 16 88 32 101 36 14 5 22 15 22 30 0 21 -13 28 -107 62 l-106 39 -17 80
c-19 94 -71 223 -112 282 -17 23 -65 71 -109 107 -70 59 -114 81 -179 91 -21
3 -25 58 -6 74 14 11 14 15 0 36 -9 14 -20 67 -26 132 -5 59 -11 109 -13 111
-1 2 -5 -12 -8 -30z m-40 -1190 c37 -41 56 -115 61 -245 l4 -121 -76 -4 -76
-3 0 164 c0 148 2 167 21 197 24 40 38 42 66 12z m363 -65 c18 -53 24 -98 27
-205 l5 -137 -33 9 c-19 4 -51 11 -72 15 l-39 6 4 154 3 154 34 35 c19 20 38
36 41 36 4 0 17 -30 30 -67z m-584 1 c10 -23 14 -77 14 -182 l0 -150 -41 -10
-41 -10 4 171 c5 215 25 274 64 181z m344 -176 l-5 -133 -3 119 c-2 106 0 146
10 146 2 0 1 -60 -2 -132z"/>
<path d="M11941 9670 c-2 -3 -8 -54 -15 -113 -10 -84 -18 -113 -34 -130 -21
-22 -21 -23 -2 -35 13 -8 20 -23 20 -42 0 -25 -4 -30 -23 -30 -27 0 -129 -59
-170 -98 -76 -72 -136 -191 -221 -442 -11 -31 -20 -38 -99 -68 -73 -28 -87
-38 -87 -56 0 -18 16 -29 90 -60 l90 -39 0 -277 0 -277 -47 -13 c-27 -7 -56
-14 -65 -17 -16 -4 -18 -17 -18 -102 l0 -98 38 -11 c20 -6 48 -14 61 -18 l24
-6 -6 -367 c-4 -201 -11 -690 -17 -1086 -6 -396 -13 -761 -16 -812 l-6 -91
-69 -13 -69 -12 0 -98 0 -98 38 -10 c21 -6 53 -14 71 -17 l33 -7 -6 -226 c-3
-124 -11 -530 -16 -901 -6 -371 -13 -771 -16 -888 l-6 -212 -84 0 -84 0 0
-104 c0 -119 -9 -108 102 -127 l68 -11 -5 -151 c-3 -84 -10 -460 -15 -837 -6
-377 -15 -903 -20 -1169 -5 -266 -7 -488 -4 -492 6 -11 1311 -12 1316 -2 4 8
1 122 -21 1043 -6 245 -16 627 -21 850 -5 223 -12 482 -16 576 l-6 171 58 12
c33 6 76 16 97 22 l38 10 -3 102 -3 102 -93 7 c-51 3 -95 8 -96 10 -2 1 -8
242 -15 533 -6 292 -16 703 -21 915 -5 212 -11 466 -12 565 l-3 180 25 3 c14
1 42 7 63 14 l37 11 0 99 0 98 -64 0 -65 0 -5 43 c-3 23 -10 267 -16 542 -6
275 -15 678 -21 895 -5 217 -11 519 -12 670 l-2 274 33 9 32 10 0 98 0 98 -57
16 c-32 9 -66 18 -75 21 -17 5 -18 27 -18 284 l0 279 100 32 c86 29 100 36
100 55 0 18 -18 29 -104 65 l-104 44 -12 80 c-7 44 -22 98 -34 120 -13 22 -30
61 -40 87 -11 30 -40 69 -82 112 -79 80 -139 122 -207 146 -42 15 -53 23 -55
44 -2 17 3 29 17 38 20 12 20 13 1 33 -14 15 -22 50 -33 135 -8 63 -15 113
-16 110z m-32 -1250 c34 -61 51 -140 51 -242 0 -84 -1 -88 -22 -89 -13 0 -47
-4 -76 -8 l-53 -8 3 166 c3 158 4 168 28 199 13 18 29 31 35 29 5 -2 21 -23
34 -47z m366 -102 c8 -35 15 -111 15 -169 l0 -106 -70 15 -70 15 0 134 c0 141
7 170 53 221 l21 23 18 -35 c10 -19 25 -63 33 -98z m-601 72 c22 -55 24 -340
2 -340 -7 0 -28 -3 -46 -6 l-32 -7 4 159 c3 121 8 168 20 197 9 20 21 37 26
37 6 0 17 -18 26 -40z m356 -165 c0 -90 -4 -145 -10 -145 -6 0 -10 45 -10 114
0 104 7 176 16 176 2 0 4 -65 4 -145z"/>
</g>
</svg>
