<?xml version="1.0" standalone="no"?>
<!DOCTYPE svg PUBLIC "-//W3C//DTD SVG 20010904//EN"
 "http://www.w3.org/TR/2001/REC-SVG-20010904/DTD/svg10.dtd">
<svg version="1.0" xmlns="http://www.w3.org/2000/svg"
 width="474.000000pt" height="520.000000pt" viewBox="0 0 474.000000 520.000000"
 preserveAspectRatio="xMidYMid meet">

<g transform="translate(0.000000,520.000000) scale(0.100000,-0.100000)"
fill="#000000" stroke="none">
<path d="M2225 4691 c-105 -26 -191 -74 -265 -150 -179 -180 -217 -424 -103
-653 71 -142 221 -257 373 -287 36 -7 75 -15 88 -17 22 -5 23 -8 22 -112 -2
-145 -2 -144 13 -140 8 3 14 42 17 129 l5 124 51 6 c126 16 240 76 333 174
111 119 157 246 149 415 -13 255 -190 461 -444 515 -89 19 -152 18 -239 -4z
m310 -53 c82 -34 131 -66 191 -129 65 -68 97 -120 123 -199 81 -246 -33 -519
-263 -630 -202 -97 -415 -70 -581 75 l-40 34 183 1 c155 0 182 2 182 15 0 13
-26 15 -175 15 -110 0 -175 4 -175 10 0 6 132 10 375 10 237 0 375 -4 375 -10
0 -6 -70 -11 -177 -12 -130 -2 -177 -6 -181 -15 -5 -18 348 -19 366 -1 18 18
15 42 -8 56 -17 10 -20 23 -20 82 0 92 -18 90 -22 -2 l-3 -72 -183 -1 c-101 0
-188 3 -193 6 -6 3 -8 58 -7 125 l3 119 193 3 192 2 0 -24 c0 -14 5 -28 10
-31 7 -4 10 36 8 122 l-3 128 -46 3 -46 3 -1 85 c-1 128 -14 166 -47 135 -6
-4 -132 -57 -282 -115 -222 -88 -272 -112 -277 -129 -3 -12 -6 -113 -6 -225
l0 -202 -25 -12 c-14 -6 -25 -18 -25 -27 -1 -29 -49 41 -81 119 -37 88 -49
209 -30 303 39 186 194 349 382 402 81 23 237 14 314 -17z m55 -158 l0 -40
-50 0 c-64 0 -66 -18 -3 -22 36 -2 49 -7 51 -20 3 -15 -4 -18 -47 -18 -28 0
-51 -4 -51 -10 0 -5 23 -10 50 -10 43 0 50 -3 50 -20 0 -19 -7 -20 -149 -20
-120 0 -150 -3 -154 -14 -3 -8 -6 -108 -6 -222 -1 -114 -3 -209 -5 -211 -3 -4
-149 -5 -238 -3 -17 0 -18 17 -18 210 l0 211 28 15 c35 20 513 212 530 213 8
1 12 -13 12 -39z m98 -264 l-3 -71 -170 -3 c-93 -1 -180 0 -193 3 -21 5 -23
10 -20 73 l3 67 180 5 c99 3 186 3 193 1 9 -2 12 -23 10 -75z"/>
<path d="M1070 4179 c-150 -24 -321 -154 -393 -296 -48 -97 -60 -165 -55 -293
4 -86 10 -117 33 -170 95 -223 284 -350 521 -350 137 0 241 38 371 135 9 7 34
-11 96 -73 79 -78 107 -97 107 -70 0 7 -37 50 -82 95 -62 62 -80 87 -73 96 97
130 137 238 137 372 1 219 -116 408 -312 503 -117 57 -218 72 -350 51z m234
-45 c260 -67 432 -327 388 -586 -71 -417 -572 -589 -873 -301 -143 137 -198
323 -150 509 25 98 65 168 136 239 132 132 321 185 499 139z"/>
<path d="M1031 3846 c-1 -21 -4 -26 -13 -19 -22 17 -50 24 -42 11 5 -8 2 -9
-11 -4 -46 17 -76 -72 -35 -109 38 -35 84 19 63 76 -6 16 -7 29 -2 29 5 0 11
-11 15 -25 3 -14 10 -25 15 -25 16 0 10 -32 -8 -45 -24 -18 -22 -78 4 -113
l21 -29 -22 4 c-25 5 -56 -19 -56 -43 0 -10 13 -14 51 -14 l51 0 -7 117 c-8
127 -22 236 -24 189z"/>
<path d="M1064 3833 c3 -21 8 -96 12 -166 4 -81 10 -127 17 -124 11 3 11 117
1 250 -5 58 -10 77 -21 77 -11 0 -13 -9 -9 -37z"/>
<path d="M1127 3708 c3 -90 7 -165 10 -167 2 -3 8 0 13 5 16 16 0 324 -16 324
-11 0 -12 -32 -7 -162z"/>
<path d="M1188 3713 c-5 -137 0 -189 16 -172 2 2 6 77 7 167 3 115 1 162 -7
162 -8 0 -13 -51 -16 -157z"/>
<path d="M1303 3820 c0 -30 2 -43 4 -27 2 15 2 39 0 55 -2 15 -4 2 -4 -28z"/>
<path d="M1253 3765 c0 -44 2 -61 4 -37 2 23 2 59 0 80 -2 20 -4 1 -4 -43z"/>
<path d="M1293 3705 c0 -33 2 -45 4 -27 2 18 2 45 0 60 -2 15 -4 0 -4 -33z"/>
<path d="M836 3728 c-21 -30 -20 -61 3 -89 16 -20 23 -22 38 -13 29 18 40 61
22 92 -19 35 -43 39 -63 10z"/>
<path d="M1243 3585 c0 -22 2 -30 4 -17 2 12 2 30 0 40 -3 9 -5 -1 -4 -23z"/>
<path d="M872 3587 c-26 -31 -32 -67 -15 -93 18 -28 33 -18 33 24 0 17 6 22
25 22 17 0 25 5 25 18 0 37 -46 56 -68 29z"/>
<path d="M1280 3566 c0 -28 3 -31 46 -40 28 -6 32 -4 36 18 4 20 0 26 -21 31
-14 3 -34 8 -43 11 -14 4 -18 -1 -18 -20z"/>
<path d="M1470 3581 c0 -6 5 -13 10 -16 6 -3 10 1 10 9 0 9 -4 16 -10 16 -5 0
-10 -4 -10 -9z"/>
<path d="M1420 3530 c0 -25 5 -31 33 -38 35 -10 44 -6 49 22 2 16 -6 22 -39
32 l-43 13 0 -29z"/>
<path d="M1118 3333 c34 -2 88 -2 120 0 31 2 3 3 -63 3 -66 0 -92 -1 -57 -3z"/>
<path d="M3442 4179 c-196 -33 -369 -188 -434 -389 -30 -93 -29 -241 2 -330
23 -67 64 -144 102 -193 l22 -27 -89 -90 c-73 -74 -86 -90 -71 -96 13 -5 38
14 101 76 l84 83 68 -47 c183 -125 434 -130 616 -12 111 71 210 205 243 331
16 59 18 211 3 275 -35 152 -152 297 -299 368 -117 57 -220 72 -348 51z m233
-44 c137 -36 270 -142 333 -266 106 -209 69 -445 -97 -610 -303 -303 -818
-135 -883 289 -41 262 127 517 385 587 70 18 189 18 262 0z"/>
<path d="M3414 4042 c-164 -58 -274 -223 -274 -411 0 -117 29 -199 103 -292
30 -38 107 -99 126 -99 7 0 11 27 11 73 0 69 -2 75 -31 103 l-31 29 5 135 c3
74 8 149 11 165 15 71 60 188 82 213 l23 27 2 -305 c0 -168 4 -343 7 -390 l7
-85 66 -3 67 -3 7 138 c5 100 4 138 -4 141 -7 2 -26 16 -43 30 l-31 26 7 151
c7 165 12 195 32 195 11 0 14 -28 14 -145 0 -90 4 -145 10 -145 6 0 10 55 10
145 0 122 2 145 15 145 13 0 15 -23 15 -145 0 -90 4 -145 10 -145 6 0 10 55
10 145 0 122 2 145 15 145 13 0 15 -23 15 -146 0 -112 3 -145 13 -142 9 3 13
44 15 146 1 84 7 142 12 142 6 0 11 -15 11 -32 1 -18 3 -42 5 -53 1 -11 6 -70
10 -131 8 -122 3 -139 -52 -175 -28 -18 -28 -18 -25 -121 1 -57 5 -113 8 -126
l5 -22 49 26 c199 109 277 376 172 591 -36 73 -108 145 -184 184 -56 28 -76
33 -154 36 -68 3 -102 -1 -141 -15z"/>
<path d="M2201 3000 c-106 -28 -193 -76 -273 -149 -111 -103 -175 -210 -202
-344 -60 -291 67 -570 325 -711 92 -50 149 -66 264 -73 135 -8 226 9 327 59
331 166 459 543 300 878 -48 99 -185 239 -283 288 -145 71 -312 90 -458 52z"/>
<path d="M630 2989 c-130 -22 -276 -121 -356 -241 -183 -275 -89 -650 203
-805 165 -89 376 -85 543 10 135 76 244 235 269 390 l12 77 125 0 c114 0 125
2 122 18 -3 15 -18 17 -124 20 l-121 3 -16 81 c-24 120 -66 199 -156 289 -138
138 -303 190 -501 158z m256 -50 c429 -131 509 -695 133 -942 -193 -127 -469
-103 -637 56 -295 279 -175 777 213 888 85 25 207 24 291 -2z"/>
<path d="M535 2828 c-30 -17 -35 -28 -35 -90 0 -54 -2 -58 -23 -58 -46 0 -47
-6 -47 -327 l0 -303 110 0 110 0 0 95 0 96 78 -3 77 -3 3 -93 3 -93 106 3 106
3 -2 305 c-1 168 -5 308 -9 312 -4 3 -18 8 -32 10 -23 3 -25 7 -28 65 -4 92
-7 93 -222 93 -111 0 -182 -5 -195 -12z m25 -53 c0 -8 7 -15 15 -15 8 0 15 7
15 15 0 8 5 15 10 15 6 0 10 -16 10 -35 0 -19 -4 -35 -10 -35 -5 0 -10 5 -10
10 0 6 -7 10 -15 10 -8 0 -15 -4 -15 -10 0 -5 -4 -10 -10 -10 -5 0 -10 16 -10
35 0 19 5 35 10 35 6 0 10 -7 10 -15z m134 -1 c20 -19 20 -28 2 -44 -24 -19
-61 -8 -64 19 -6 38 33 54 62 25z m86 6 c0 -5 -4 -10 -10 -10 -5 0 -10 -11
-10 -25 0 -14 -4 -25 -10 -25 -5 0 -10 11 -10 25 0 14 -4 25 -10 25 -5 0 -10
5 -10 10 0 6 14 10 30 10 17 0 30 -4 30 -10z m80 0 c0 -5 -10 -11 -22 -11 -17
-1 -19 -2 -5 -6 9 -2 17 -8 17 -13 0 -5 -7 -7 -15 -4 -8 4 -15 1 -15 -4 0 -6
10 -13 23 -15 16 -3 13 -5 -10 -6 -31 -1 -33 1 -33 34 0 32 2 35 30 35 17 0
30 -4 30 -10z m33 -20 c-4 -14 0 -20 10 -20 9 0 19 -4 22 -10 4 -6 -7 -10 -24
-10 -27 0 -31 3 -31 28 0 16 3 32 6 35 12 12 22 -3 17 -23z m-283 -205 l0 -55
-60 0 -60 0 0 55 0 55 60 0 60 0 0 -55z m178 -2 l3 -53 -60 0 -61 0 0 55 0 56
58 -3 57 -3 3 -52z m180 0 c3 -58 -3 -62 -80 -54 -43 4 -54 23 -43 77 l6 35
57 -3 57 -3 3 -52z m-360 -170 c3 -48 1 -53 -21 -58 -13 -4 -39 -5 -58 -3 -32
3 -34 5 -37 47 -5 67 0 72 60 69 l53 -3 3 -52z m177 -3 l0 -55 -55 0 -55 0 -3
44 c-5 67 0 72 60 69 l53 -3 0 -55z m183 3 c3 -48 1 -53 -21 -58 -13 -4 -39
-5 -58 -3 -28 2 -35 8 -43 36 -6 22 -5 41 3 58 10 23 16 25 64 22 l52 -3 3
-52z m-363 -173 l0 -55 -55 0 -55 0 -3 52 c-3 58 2 62 73 60 l40 -2 0 -55z
m360 0 l0 -55 -55 0 -55 0 -3 49 c-4 58 6 67 68 64 l45 -3 0 -55z"/>
<path d="M652 2754 c4 -21 22 -23 26 -1 2 10 -3 17 -13 17 -10 0 -15 -6 -13
-16z"/>
<path d="M710 2130 c0 -73 2 -80 20 -80 18 0 20 7 20 80 0 73 -2 80 -20 80
-18 0 -20 -7 -20 -80z"/>
<path d="M3862 2985 c-220 -48 -385 -218 -429 -445 l-16 -79 -121 -3 c-106 -3
-121 -5 -124 -20 -3 -16 8 -18 121 -18 l124 0 12 -75 c43 -266 279 -466 549
-465 108 1 157 12 252 57 88 42 189 137 237 223 124 218 85 497 -93 675 -134
134 -326 190 -512 150z m252 -41 c88 -23 172 -73 242 -146 102 -106 144 -212
144 -364 0 -294 -228 -519 -525 -518 -234 2 -431 153 -499 383 -23 78 -21 213
4 293 50 162 193 303 354 349 77 22 200 24 280 3z"/>
<path d="M4212 2711 c-23 -32 -41 -37 -216 -62 -86 -12 -116 -26 -116 -55 0
-11 -7 -9 -32 6 -40 24 -50 25 -94 4 -54 -26 -87 -91 -92 -184 -5 -93 8 -140
51 -176 28 -23 37 -26 82 -20 27 3 59 9 71 12 18 5 22 0 27 -32 3 -20 16 -47
28 -60 12 -13 27 -34 33 -46 8 -16 20 -23 41 -23 26 0 34 7 54 48 20 39 29 47
52 47 15 0 31 -4 34 -10 13 -22 25 -8 25 30 0 29 5 42 21 50 20 11 20 12 -6
46 -15 20 -25 37 -24 38 2 2 34 13 72 25 77 26 69 10 93 195 14 113 15 131 2
140 -8 6 -20 21 -27 34 -17 31 -53 28 -79 -7z m61 -8 c11 -10 -34 -53 -55 -53
-17 0 -17 2 4 30 21 29 38 37 51 23z m13 -79 c-3 -9 -6 -22 -6 -30 0 -8 -10
-14 -24 -14 -32 0 -56 -10 -56 -22 0 -6 14 -8 36 -3 32 5 36 4 30 -10 -3 -9
-6 -23 -6 -30 0 -8 -15 -17 -35 -21 -21 -4 -35 -12 -35 -21 0 -15 20 -14 64 3
21 8 20 -9 0 -53 -11 -23 -22 -32 -31 -28 -9 3 -33 0 -55 -6 -22 -5 -42 -9
-43 -7 -4 4 23 217 29 235 5 11 38 18 105 21 26 2 32 -1 27 -14z m-156 -44 c0
-33 -3 -40 -19 -40 -33 0 -51 -11 -51 -32 0 -16 5 -19 25 -16 23 5 25 2 25
-29 0 -29 -4 -34 -30 -39 -26 -6 -30 -11 -30 -39 0 -27 -5 -34 -26 -39 -15 -4
-28 -6 -29 -4 -4 4 14 241 19 255 4 11 32 17 94 21 19 2 22 -3 22 -38z m-150
-114 c0 -130 -1 -134 -22 -140 -33 -8 -40 -7 -33 4 11 18 -12 10 -26 -9 -8
-11 -24 -22 -35 -25 l-21 -7 24 98 c52 212 47 201 106 212 4 0 7 -59 7 -133z
m-133 82 c29 -27 29 -49 -1 -77 -23 -22 -23 -22 -29 -2 -8 32 -36 25 -53 -14
-18 -43 -18 -66 0 -90 14 -19 15 -19 35 -1 20 18 21 18 31 -8 15 -40 13 -53
-12 -70 -79 -55 -145 39 -118 168 20 100 92 146 147 94z m264 -260 c5 -7 9
-23 9 -35 0 -17 -6 -23 -22 -23 -45 0 -68 -12 -68 -34 0 -15 -3 -17 -9 -8 -11
19 -22 -8 -14 -37 3 -12 1 -21 -5 -21 -5 0 -13 11 -16 25 -4 14 -13 25 -21 25
-37 0 -48 83 -13 101 57 31 142 35 159 7z"/>
<path d="M4040 2470 c0 -5 5 -10 11 -10 5 0 7 5 4 10 -3 6 -8 10 -11 10 -2 0
-4 -4 -4 -10z"/>
<path d="M3921 2424 c0 -11 3 -14 6 -6 3 7 2 16 -1 19 -3 4 -6 -2 -5 -13z"/>
<path d="M2227 1550 c-386 -61 -691 -347 -772 -726 -22 -101 -31 -320 -15
-369 15 -49 54 -93 97 -111 48 -21 1598 -21 1646 0 43 18 84 67 98 119 13 47
6 232 -11 332 -77 429 -438 743 -875 760 -60 2 -136 0 -168 -5z"/>
</g>
</svg>
